# xmcd CD database file
#
# Track frame offsets:
#	150
#	2050
#	22762
#	27292
#	43770
#	48485
#	58182
#	63075
#	71652
#	76305
#	88602
#	91975
#	114640
#	115512
#	142305
#	146675
#	159127
#	164067
#	174425
#	178687
#	180682
#	184702
#	199295
#	203907
#
# Disc length: 2946 seconds
#
# Revision: 1
# Processed by: cddbd v1.5.1PL0 Copyright (c) Steve Scherf et al.
# Submitted via: CDex 1.51
#
DISCID=4d0b8018
DTITLE=坂田 明 - 20人格
DYEAR=1981
DGENRE=Jazz
TTITLE0=発声練習
TTITLE1=新童謡パート１
TTITLE2=屋台のラーメン屋
TTITLE3=ホワイト・クリスマス
TTITLE4=トラック運転手
TTITLE5=詩とジャズの夕べ・於京城
TTITLE6=農業従事者
TTITLE7=TOKIO　ムギフミ
TTITLE8=元プロ野球選手
TTITLE9=新童謡パート2
TTITLE10=新任教師
TTITLE11=勧進帳
TTITLE12=ピアノ練習曲
TTITLE13=元総理と鍵盤の対話
TTITLE14=笑う人
TTITLE15=フォルクローレ
TTITLE16=コメディアン
TTITLE17=詩とジャズの夕べ・於北京
TTITLE18=季節労働者
TTITLE19=ネイマ
TTITLE20=建築業者
TTITLE21=電話
TTITLE22=バンドマン
TTITLE23=サンバ・デ・ドンバ
EXTD=YEAR: 1981
EXTT0=
EXTT1=
EXTT2=
EXTT3=
EXTT4=
EXTT5=
EXTT6=
EXTT7=
EXTT8=
EXTT9=
EXTT10=
EXTT11=
EXTT12=
EXTT13=
EXTT14=
EXTT15=
EXTT16=
EXTT17=
EXTT18=
EXTT19=
EXTT20=
EXTT21=
EXTT22=
EXTT23=
PLAYORDER=
